<?xml version="1.0" encoding="UTF-8" standalone="no"?> <svg xmlns="http://www.w3.org/2000/svg" viewBox="0 0 48 48"><g id="Broom"><path d="M46.414,3,45,1.586a2.047,2.047,0,0,0-2.828,0L19.2,24.554a5.008,5.008,0,0,0-6.292.636l-1.336,1.335L1.933,32.611a2,2,0,0,0-.347,3.106l10.7,10.7A1.989,1.989,0,0,0,13.694,47a2.12,2.12,0,0,0,.225-.012,1.993,1.993,0,0,0,1.47-.921l6.086-9.642,1.335-1.336a5.008,5.008,0,0,0,.636-6.292L46.414,5.829a2,2,0,0,0,0-2.829ZM13.7,45l-2.89-2.89,3.535-4.041a1,1,0,1,0-1.505-1.317L9.39,40.693,7.172,38.475l5.384-4.621a1,1,0,1,0-1.3-1.517l-5.5,4.72L3,34.3l9.062-5.72,7.355,7.355Zm7.7-11.325-.707.707-7.071-7.071.707-.707a3,3,0,0,1,4.243,0L21.4,29.432A3.005,3.005,0,0,1,21.4,33.675Zm.707-6.364L20.689,25.9,43.586,3,45,4.414Z"/><path d="M16.52,9.877l.912.5a3,3,0,0,1,1.192,1.192l.5.912a1,1,0,0,0,1.754,0l.5-.912a3,3,0,0,1,1.192-1.192l.912-.5a1,1,0,0,0,0-1.754l-.912-.5a3,3,0,0,1-1.192-1.192l-.5-.912a1.04,1.04,0,0,0-1.754,0l-.5.912a3,3,0,0,1-1.192,1.192l-.912.5a1,1,0,0,0,0,1.754ZM20,7.982A5.011,5.011,0,0,0,21.018,9,5.011,5.011,0,0,0,20,10.018,5.011,5.011,0,0,0,18.982,9,5.011,5.011,0,0,0,20,7.982Z"/><path d="M35.48,36.123l-.912-.5a3,3,0,0,1-1.192-1.192l-.5-.912a1.04,1.04,0,0,0-1.754,0l-.5.912a3,3,0,0,1-1.192,1.192l-.912.5a1,1,0,0,0,0,1.754l.912.5a3,3,0,0,1,1.192,1.192l.5.912a1,1,0,0,0,1.754,0l.5-.912a3,3,0,0,1,1.192-1.192l.912-.5a1,1,0,0,0,0-1.754ZM32,38.018A5.011,5.011,0,0,0,30.982,37,5.011,5.011,0,0,0,32,35.982,5.011,5.011,0,0,0,33.018,37,5.011,5.011,0,0,0,32,38.018Z"/><path d="M7,21H8v1a1,1,0,0,0,2,0V21h1a1,1,0,0,0,0-2H10V18a1,1,0,0,0-2,0v1H7a1,1,0,0,0,0,2Z"/><path d="M42,25H41V24a1,1,0,0,0-2,0v1H38a1,1,0,0,0,0,2h1v1a1,1,0,0,0,2,0V27h1a1,1,0,0,0,0-2Z"/></g></svg>